<?xml version="1.0" encoding="utf-8"?>
<!-- Generator: Adobe Illustrator 22.0.1, SVG Export Plug-In . SVG Version: 6.00 Build 0)  -->
<svg version="1.1" id="Layer_1" 
	xmlns="http://www.w3.org/2000/svg" 
	xmlns:xlink="http://www.w3.org/1999/xlink" x="0px" y="0px" viewBox="0 0 512 512" style="enable-background:new 0 0 512 512;" xml:space="preserve">
	<style type="text/css">
	.st0{display:none;fill:none;stroke:#FF6666;stroke-width:6;stroke-linecap:round;stroke-linejoin:round;stroke-miterlimit:10;}
	.st1{fill:none;stroke:#FF6666;stroke-width:6;stroke-linecap:round;stroke-linejoin:round;stroke-miterlimit:10;}
	</style>
	<polygon class="st0" points="256,16 128,80 128,224 256,288 384,224 384,80 "/>
	<polygon class="st1" points="296,186.7 216,186.7 176,256 216,325.3 296,325.3 336,256 "/>
	<polygon class="st1" points="296,355.7 216,355.7 176,425 216,494.3 296,494.3 336,425 "/>
	<polygon class="st1" points="362.4,271.2 322.4,340.5 362.4,409.8 442.4,409.8 482.4,340.5 442.4,271.2 "/>
	<polygon class="st1" points="322.4,171.5 362.4,240.8 442.4,240.8 482.4,171.5 442.4,102.2 362.4,102.2 "/>
	<polygon class="st1" points="216,156.3 296,156.3 336,87 296,17.7 216,17.7 176,87 "/>
	<polygon class="st1" points="149.6,240.8 189.6,171.5 149.6,102.2 69.6,102.2 29.6,171.5 69.6,240.8 "/>
</svg>
