<?xml version="1.0" encoding="utf-8"?>
<!-- Generator: Adobe Illustrator 22.0.1, SVG Export Plug-In . SVG Version: 6.00 Build 0)  -->
<svg version="1.1" id="Layer_1" xmlns="http://www.w3.org/2000/svg" xmlns:xlink="http://www.w3.org/1999/xlink" x="0px" y="0px"
	 viewBox="0 0 128 128" style="enable-background:new 0 0 128 128;" xml:space="preserve">
<style type="text/css">
	.st0{fill:none;stroke:#FF8080;stroke-width:4;stroke-miterlimit:10;}
</style>
<circle class="st0" cx="64" cy="64" r="56"/>
<path class="st0" d="M112.5,92c-0.2-0.4-0.4-0.8-0.7-1.2c-0.5-0.8-1-1.5-1.5-2.3c-0.8-1.2-1.7-2.4-2.7-3.6
	C99,74.1,86.4,66.6,72,64.6c-2.6-0.4-5.3-0.6-8-0.6c-5.5,0-10.9,0.8-15.9,2.3c-8.2,2.4-15.6,6.7-21.8,12.3C22,82.5,18.4,87,15.5,92"
	/>
<path class="st0" d="M72,64.6c0-0.2,0-0.4,0-0.6c0-13.2,10.8-24,24-24s24,10.8,24,24c0,0.3,0,0.6,0,0.9"/>
<path class="st0" d="M48.1,66.3c0-0.8-0.1-1.5-0.1-2.3c0-19.9,16.1-36,36-36c19.5,0,35.3,15.5,36,34.8c0,0,0,0,0,0c0,0,0,0.1,0,0.1
	c0,0,0,0,0,0c0,0,0,0.1,0,0.1c0,0,0,0,0,0.1c0,0.3,0,0.6,0,0.9c0,0.3,0,0.6,0,0.9c0,0,0,0,0,0.1s0,0.1,0,0.1c0,0,0,0.1,0,0.1
	c0,0,0,0,0,0c0,0,0,0.1,0,0.1c0,0,0,0,0,0"/>
<path class="st0" d="M26.3,78.6C24.8,74,24,69.1,24,64c0-26.5,21.5-48,48-48c25.7,0,46.7,20.2,47.9,45.5c0,0.4,0,0.8,0,1.2
	c0,0,0,0,0,0c0,0,0,0.1,0,0.1c0,0,0,0,0,0c0,0,0,0.1,0,0.1c0,0,0,0,0,0.1c0,0.3,0,0.6,0,0.9c0,0.3,0,0.6,0,0.9c0,0,0,0,0,0.1
	s0,0.1,0,0.1c0,0,0,0.1,0,0.1c0,0,0,0,0,0c0,0,0,0.1,0,0.1c0,0,0,0,0,0c0,0.4,0,0.8,0,1.2"/>
<circle class="st0" cx="64" cy="92" r="28"/>
<circle class="st0" cx="64" cy="92" r="12"/>
</svg>
