<?xml version="1.0" encoding="utf-8"?>
<!-- Generator: Adobe Illustrator 22.0.1, SVG Export Plug-In . SVG Version: 6.00 Build 0)  -->
<svg version="1.1" id="Layer_1" 
	xmlns="http://www.w3.org/2000/svg" 
	xmlns:xlink="http://www.w3.org/1999/xlink" x="0px" y="0px" width="32px" height="32px" viewBox="0 0 32 32" style="enable-background:new 0 0 32 32;" xml:space="preserve">
	<style type="text/css">
	.st0{fill:none;stroke:#FFFFFF;stroke-width:2;stroke-linecap:round;stroke-linejoin:round;stroke-miterlimit:10;}
	</style>
	<path class="st0" d="M30,5v3h-6V5c0-1.7,1.3-3,3-3S30,3.3,30,5z"/>
	<path class="st0" d="M27,2c-1.7,0-3,1.3-3,3v22c0,1.7-1.3,3-3,3s-3-1.3-3-3v-3H8V5c0-1.7,1.3-3,3-3H27z"/>
	<path class="st0" d="M21,30H5c-1.7,0-3-1.3-3-3v-3h16v3C18,28.7,19.3,30,21,30z"/>
</svg>
