<?xml version="1.0" encoding="utf-8"?>
<!-- Generator: Adobe Illustrator 22.0.1, SVG Export Plug-In . SVG Version: 6.00 Build 0)  -->
<svg version="1.1" id="Layer_1" xmlns="http://www.w3.org/2000/svg" xmlns:xlink="http://www.w3.org/1999/xlink" x="0px" y="0px"
	 viewBox="0 0 512 512" style="enable-background:new 0 0 512 512;" xml:space="preserve">
<style type="text/css">
	.st0{fill:#D81B60;}
</style>
<path class="st0" d="M256,16C123.4,16,16,126.1,16,262.1C16,371,84.7,462.9,180.1,495.5c12,2.2,16.5-5.2,16.5-11.7
	c0-5.8-0.3-25.2-0.3-45.8c-60.3,11.4-75.9-15.1-80.7-28.9c-2.7-7.1-14.4-28.9-24.6-34.8c-8.4-4.6-20.4-16-0.3-16.3
	c18.9-0.3,32.4,17.8,36.9,25.2c21.6,37.2,56.1,26.8,69.9,20.3c2.1-16,8.4-26.8,15.3-32.9c-53.4-6.2-109.2-27.4-109.2-121.5
	c0-26.8,9.3-48.9,24.6-66.1c-2.4-6.2-10.8-31.4,2.4-65.2c0,0,20.1-6.5,66,25.2c19.2-5.5,39.6-8.3,60-8.3s40.8,2.8,60,8.3
	c45.9-32,66-25.2,66-25.2c13.2,33.8,4.8,59.1,2.4,65.2c15.3,17.2,24.6,39.1,24.6,66.1c0,94.4-56.1,115.3-109.5,121.5
	c8.7,7.7,16.2,22.5,16.2,45.5c0,32.9-0.3,59.4-0.3,67.7c0,6.5,4.5,14.1,16.5,11.7C430.2,461.7,496,367.8,496,262.1
	C496,126.1,388.6,16,256,16z"/>
</svg>
