<?xml version="1.0" encoding="utf-8"?>
<!-- Generator: Adobe Illustrator 22.0.1, SVG Export Plug-In . SVG Version: 6.00 Build 0)  -->
<svg version="1.1" id="Layer_1" xmlns="http://www.w3.org/2000/svg" xmlns:xlink="http://www.w3.org/1999/xlink" x="0px" y="0px"
	 width="36px" height="36px" viewBox="0 0 36 36" style="enable-background:new 0 0 36 36;" xml:space="preserve">
<style type="text/css">
	.st0{fill:none;stroke:#222222;stroke-width:2.5;stroke-linecap:round;stroke-linejoin:round;stroke-miterlimit:10;}
</style>
<line class="st0" x1="2" y1="34" x2="34" y2="34"/>
<path class="st0" d="M10,2c0.3,0.9,0.9,3.3,0,6c-1.4,4.3-5.4,5.8-6,6c2,2.5,4,5.2,6,8c2.9,4.1,5.6,8.1,8,12c2.4-3.9,5.1-7.9,8-12
	c2-2.8,4-5.5,6-8c-0.6-0.2-4.6-1.7-6-6c-0.9-2.7-0.3-5.1,0-6C20.7,2,15.3,2,10,2z"/>
<line class="st0" x1="18" y1="16" x2="18" y2="34"/>
<line class="st0" x1="6" y1="2" x2="30" y2="2"/>
<circle class="st0" cx="18" cy="14" r="2"/>
</svg>
