<?xml version="1.0" encoding="utf-8"?>
<!-- Generator: Adobe Illustrator 22.0.1, SVG Export Plug-In . SVG Version: 6.00 Build 0)  -->
<svg version="1.1" id="Layer_1" 
	xmlns="http://www.w3.org/2000/svg" 
	xmlns:xlink="http://www.w3.org/1999/xlink" x="0px" y="0px" viewBox="0 0 512 512" style="enable-background:new 0 0 512 512;" xml:space="preserve">
	<style type="text/css">
	.st0{fill:none;stroke:#FF6666;stroke-width:6;stroke-linecap:round;stroke-linejoin:round;stroke-miterlimit:10;}
	</style>
	<line class="st0" x1="224" y1="32" x2="288" y2="32"/>
	<rect x="16" y="272" class="st0" width="128" height="224"/>
	<rect x="32" y="304" class="st0" width="96" height="160"/>
	<line class="st0" x1="64" y1="288" x2="96" y2="288"/>
	<rect x="288" y="192" class="st0" width="208" height="304"/>
	<rect x="304" y="224" class="st0" width="176" height="240"/>
	<line class="st0" x1="368" y1="208" x2="416" y2="208"/>
	<line class="st0" x1="64" y1="480" x2="96" y2="480"/>
	<line class="st0" x1="368" y1="480" x2="416" y2="480"/>
	<polyline class="st0" points="80,256 80,48 432,48 432,176 "/>
	<polyline class="st0" points="48,256 48,16 464,16 464,176 "/>
	<line class="st0" x1="160" y1="320" x2="272" y2="320"/>
	<line class="st0" x1="160" y1="352" x2="272" y2="352"/>
	<line class="st0" x1="192" y1="355.6" x2="192" y2="431.4"/>
	<polyline class="st0" points="272,432 160,432 160,464 272,464 "/>
</svg>
