<?xml version="1.0" encoding="utf-8"?>
<!-- Generator: Adobe Illustrator 22.0.1, SVG Export Plug-In . SVG Version: 6.00 Build 0)  -->
<svg version="1.1" id="Layer_1" xmlns="http://www.w3.org/2000/svg" xmlns:xlink="http://www.w3.org/1999/xlink" x="0px" y="0px"
	 width="40px" height="40px" viewBox="0 0 40 40" style="enable-background:new 0 0 40 40;" xml:space="preserve">
<style type="text/css">
	.st0{fill:none;stroke:#222222;stroke-width:0.5;stroke-linecap:round;stroke-linejoin:round;stroke-miterlimit:10;}
</style>
<path class="st0" d="M20,36c-8.8,0-16-7.2-16-16S11.2,4,20,4s16,7.2,16,16"/>
<path class="st0" d="M32,20c0,6.6-5.4,12-12,12S8,26.6,8,20S13.4,8,20,8"/>
<path class="st0" d="M20,12c4.4,0,8,3.6,8,8s-3.6,8-8,8s-8-3.6-8-8"/>
<path class="st0" d="M16,20c0-2.2,1.8-4,4-4s4,1.8,4,4s-1.8,4-4,4"/>
<line class="st0" x1="36" y1="20" x2="32" y2="20"/>
<line class="st0" x1="20" y1="8" x2="20" y2="12"/>
<line class="st0" x1="12" y1="20" x2="16" y2="20"/>
<line class="st0" x1="20" y1="24" x2="20" y2="20"/>
</svg>
