<?xml version="1.0" encoding="utf-8"?>
<!-- Generator: Adobe Illustrator 22.0.1, SVG Export Plug-In . SVG Version: 6.00 Build 0)  -->
<svg version="1.1" id="Layer_1" 
	xmlns="http://www.w3.org/2000/svg" 
	xmlns:xlink="http://www.w3.org/1999/xlink" x="0px" y="0px" width="32px" height="32px" viewBox="0 0 32 32" style="enable-background:new 0 0 32 32;" xml:space="preserve">
	<style type="text/css">
	.st0{fill:none;stroke:#FFFFFF;stroke-width:2;stroke-linecap:round;stroke-linejoin:round;stroke-miterlimit:10;}
	</style>
	<path class="st0" d="M29.1,21.6c2.3-5.1,1.3-11.4-2.9-15.6C20.8,0.5,11.9,0.5,6.4,6S1,20.3,6.4,25.8c4.2,4.2,10.5,5.2,15.6,2.9"/>
	<path class="st0" d="M13.5,7.3c3.1-1.1,6.7-0.3,9.2,2.2c2.2,2.2,3,5.3,2.5,8.1"/>
	<path class="st0" d="M18.1,24.7c-2.8,0.6-5.9-0.3-8.1-2.5c-2.5-2.5-3.2-6.1-2.2-9.2"/>
	<polyline class="st0" points="13.5,7.3 19.2,13 13.5,18.7 7.8,13 "/>
	<line class="st0" x1="22" y1="28.6" x2="18.1" y2="24.7"/>
	<line class="st0" x1="29.1" y1="21.6" x2="25.2" y2="17.6"/>
</svg>
